<?xml version="1.0" standalone="no"?>
<!DOCTYPE svg PUBLIC "-//W3C//DTD SVG 20010904//EN"
 "http://www.w3.org/TR/2001/REC-SVG-20010904/DTD/svg10.dtd">
<svg version="1.0" xmlns="http://www.w3.org/2000/svg"
 width="200.000000pt" height="200.000000pt" viewBox="0 0 200.000000 200.000000"
 preserveAspectRatio="xMidYMid meet">

<g transform="translate(0.000000,200.000000) scale(0.100000,-0.100000)"
fill="#000000" stroke="none">
<path d="M925 1451 c-48 -22 -69 -44 -90 -94 -21 -50 -19 -93 6 -145 64 -131
260 -130 320 1 70 155 -82 309 -236 238z m166 -70 c35 -35 39 -44 39 -88 0
-56 -22 -93 -70 -118 -134 -69 -257 110 -146 212 31 28 43 33 87 33 46 0 55
-4 90 -39z"/>
<path d="M913 1050 c-112 -23 -210 -97 -232 -176 -6 -22 -11 -72 -11 -111 0
-101 6 -104 181 -101 126 3 134 4 134 23 0 19 -8 20 -132 23 l-133 3 0 70 c0
85 22 134 77 171 130 89 368 69 449 -38 17 -22 28 -53 33 -86 5 -44 9 -53 26
-53 46 0 26 112 -32 176 -78 86 -223 126 -360 99z"/>
<path d="M1177 814 c-4 -4 -7 -29 -7 -55 l0 -48 -52 -3 c-45 -3 -53 -6 -53
-23 0 -17 8 -20 52 -23 l52 -3 3 -52 c3 -44 6 -52 23 -52 17 0 20 8 23 52 l3
52 52 3 c44 3 52 6 52 23 0 17 -8 20 -52 23 l-52 3 -3 52 c-2 37 -7 53 -18 55
-9 1 -19 0 -23 -4z"/>
</g>
</svg>
