<?xml version="1.0" standalone="no"?>
<!DOCTYPE svg PUBLIC "-//W3C//DTD SVG 20010904//EN"
 "http://www.w3.org/TR/2001/REC-SVG-20010904/DTD/svg10.dtd">
<svg version="1.0" xmlns="http://www.w3.org/2000/svg"
 width="512.000000pt" height="512.000000pt" viewBox="0 0 512.000000 512.000000"
 preserveAspectRatio="xMidYMid meet">

<g transform="translate(0.000000,512.000000) scale(0.100000,-0.100000)"
fill="#000000" stroke="none">
<path d="M1260 3595 l-1255 -1255 0 -46 c0 -38 5 -50 28 -70 l28 -24 360 0
359 0 0 -919 c0 -629 3 -928 11 -949 23 -67 -120 -62 1769 -62 1889 0 1746 -5
1769 62 8 21 11 319 11 944 l0 914 356 0 c224 0 362 4 375 10 29 16 52 68 45
104 -5 25 -123 148 -566 591 l-560 560 0 483 c0 527 -1 536 -56 561 -17 7
-126 11 -339 11 l-315 0 -31 -28 c-32 -28 -32 -31 -37 -136 l-5 -108 -306 306
c-299 298 -308 306 -346 306 -39 0 -51 -12 -1295 -1255z m2048 305 c29 0 49 7
69 24 l28 24 5 184 5 183 188 3 187 2 0 -454 c0 -294 4 -465 11 -483 5 -15
229 -247 497 -515 l487 -488 -288 0 c-187 0 -295 -4 -309 -11 -49 -26 -48 -15
-48 -994 l0 -915 -1580 0 -1580 0 0 921 c0 1004 2 971 -56 998 -17 7 -117 11
-307 11 l-282 0 1110 1110 1110 1110 355 -355 c353 -352 357 -355 398 -355z"/>
</g>
</svg>
