<?xml version="1.0" standalone="no"?>
<!DOCTYPE svg PUBLIC "-//W3C//DTD SVG 20010904//EN"
 "http://www.w3.org/TR/2001/REC-SVG-20010904/DTD/svg10.dtd">
<svg version="1.0" xmlns="http://www.w3.org/2000/svg"
 width="225.000000pt" height="225.000000pt" viewBox="0 0 225.000000 225.000000"
 preserveAspectRatio="xMidYMid meet">

<g transform="translate(0.000000,225.000000) scale(0.100000,-0.100000)"
fill="#000000" stroke="none">
<path d="M975 2239 c-429 -54 -807 -380 -929 -803 -151 -519 99 -1081 586
-1319 422 -207 922 -131 1262 193 472 448 472 1182 0 1630 -248 236 -575 342
-919 299z m292 -115 c142 -15 336 -96 465 -193 479 -364 539 -1059 128 -1495
-401 -426 -1069 -426 -1470 0 -365 388 -365 990 0 1378 167 177 396 292 630
315 83 8 128 7 247 -5z"/>
<path d="M1004 1761 c-80 -23 -140 -59 -193 -116 -48 -52 -97 -149 -107 -212
l-6 -41 63 -7 c35 -3 88 -7 118 -8 l53 -2 13 48 c22 87 100 147 189 147 81 0
134 -33 167 -105 44 -94 17 -157 -125 -297 -129 -128 -156 -177 -164 -304 l-5
-84 117 0 116 0 0 55 c0 87 19 119 144 240 76 74 123 128 142 165 27 51 29 63
29 165 0 100 -3 115 -28 166 -30 63 -93 126 -156 158 -101 52 -252 65 -367 32z"/>
<path d="M1042 630 c-33 -21 -72 -87 -72 -125 0 -11 9 -39 19 -62 35 -75 146
-107 219 -63 52 32 74 76 69 138 -3 45 -9 59 -40 90 -33 32 -42 36 -99 40 -51
2 -70 -1 -96 -18z"/>
</g>
</svg>
