<?xml version="1.0" standalone="no"?>
<!DOCTYPE svg PUBLIC "-//W3C//DTD SVG 20010904//EN"
 "http://www.w3.org/TR/2001/REC-SVG-20010904/DTD/svg10.dtd">
<svg version="1.0" xmlns="http://www.w3.org/2000/svg"
 width="840.000000pt" height="859.000000pt" viewBox="0 0 840.000000 859.000000"
 preserveAspectRatio="xMidYMid meet">

<g transform="translate(0.000000,859.000000) scale(0.100000,-0.100000)"
fill="#000000" stroke="none">
<path d="M3875 8564 c-371 -39 -631 -99 -919 -213 -812 -322 -1392 -931 -1537
-1614 -29 -133 -36 -349 -15 -457 45 -239 218 -428 463 -508 191 -62 460 -48
631 33 197 94 297 221 483 617 106 226 186 365 269 465 133 161 306 267 525
324 110 29 137 32 326 36 293 8 476 -25 662 -118 328 -165 496 -449 499 -849
1 -212 -46 -371 -165 -551 -139 -211 -296 -360 -777 -734 -314 -245 -404 -320
-548 -460 -236 -228 -384 -449 -460 -685 -53 -165 -57 -193 -57 -390 0 -184 0
-185 34 -284 65 -188 197 -346 355 -424 111 -55 202 -75 351 -75 308 0 508 97
633 309 23 38 81 169 130 290 119 298 151 353 287 490 110 111 214 193 510
404 400 285 606 450 810 655 306 305 487 593 585 929 45 157 61 266 67 456 22
727 -262 1333 -824 1756 -411 309 -988 514 -1631 580 -142 14 -605 26 -687 18z"/>
<path d="M3850 1905 c-189 -40 -350 -127 -484 -260 -240 -238 -334 -582 -250
-910 82 -319 365 -597 686 -675 295 -72 586 -6 826 185 163 131 280 320 329
533 23 100 22 297 -1 402 -19 84 -68 204 -118 287 -119 198 -341 364 -566 425
-100 26 -327 34 -422 13z"/>
</g>
</svg>
